<?xml version="1.0" encoding="utf-8"?>
<!-- Generator: Adobe Illustrator 24.0.3, SVG Export Plug-In . SVG Version: 6.00 Build 0)  -->
<svg version="1.1" id="Layer_1" xmlns="http://www.w3.org/2000/svg" xmlns:xlink="http://www.w3.org/1999/xlink" x="0px" y="0px"
	 viewBox="0 0 792 612" style="enable-background:new 0 0 792 612;" xml:space="preserve">
<style type="text/css">
	.st0{fill:#0C1016;stroke:#000000;stroke-miterlimit:10;}
	.st1{fill:#FFFFFF;stroke:#000000;stroke-miterlimit:10;}
	.st2{stroke:#000000;stroke-miterlimit:10;}
	.st3{fill:none;}
	.st4{fill:#FFFFFF;}
	.st5{fill:#F6F08E;}
	.st6{fill:#27AAE1;stroke:#000000;stroke-width:7;stroke-miterlimit:10;}
	.st7{font-family:'BradleyHandITCTT-Bold';}
	.st8{font-size:33.9459px;}
</style>
<g>
	<circle class="st0" cx="337" cy="290.6" r="182.1"/>
	<g>
		<g>
			<g>
				
					<image style="overflow:visible;" width="646" height="661" xlink:href="A67183F9FA639B5F.png"  transform="matrix(0.24 0 0 0.24 243.6 238.32)">
				</image>
				<path class="st1" d="M330.5,310.5c-2.5,7.4-5.9,20.1-15.4,16.6c-14.7-5.7-5.2-22.6-0.9-33.2c0.9-3.5,9.5-4.2,13-0.7
					c4.3,3.5,3.5,8.5,3.9,13.5C331,307.8,330.8,309.1,330.5,310.5z"/>
				<path class="st1" d="M356.3,311.5c-3.1,5.7-1.4,13.5-8.3,17.7c-4.3,2.8-10.4,0-11.2-3.5c-3.5-11.3-4.3-26.9,7.8-33.2
					c5.2-2.8,10.4,6.4,12,11C356.9,305.9,356.8,308.6,356.3,311.5z"/>
				<ellipse class="st2" cx="318.1" cy="311" rx="3" ry="6.6"/>
				<ellipse class="st2" cx="345.6" cy="311.1" rx="3" ry="6.6"/>
				<rect x="307.2" y="340" class="st3" width="41.3" height="20.1"/>
				
					<image style="overflow:visible;" width="177" height="132" xlink:href="A67183F9FA639B5D.png"  transform="matrix(0.24 0 0 0.24 307.2 333.36)">
				</image>
				<g>
					<g>
						<path class="st4" d="M312.3,365.4c9.6,1.4,19.1,2.3,28.8,2.4c9.7,0.1,9.7-14.9,0-15c-8.3-0.1-16.6-0.7-24.8-1.9
							c-4-0.6-8,1-9.2,5.2C306,359.7,308.3,364.8,312.3,365.4L312.3,365.4z"/>
					</g>
				</g>
				<g>
					<g>
						<path class="st4" d="M338.1,361.4c0.8-0.1,1.7-0.2,2.5-0.2c0.4,0,0.8,0,1.3,0c1.4-0.1-0.6-0.3,0.2,0c0.4,0.1,1.2,0.6,0.5,0.1
							c-0.1-0.1-1.3-1-0.9-0.6c0.4,0.4-0.5-0.8-0.6-1.1c-0.8-1.8-0.2-3.8,1.1-5.4c-2.5,3-3.2,7.7,0,10.6c2.8,2.6,7.9,3.2,10.6,0
							c2-2.4,3.2-5.1,2.7-8.3c-0.4-2.6-1.6-5.1-3.6-6.8c-3.9-3.4-8.9-3.8-13.8-3.3c-3.9,0.4-7.7,3.2-7.5,7.5
							C330.8,357.6,334,361.8,338.1,361.4L338.1,361.4z"/>
					</g>
				</g>
			</g>
			<ellipse class="st5" cx="331.1" cy="417" rx="66.9" ry="14.9"/>
		</g>
		<rect x="228.9" y="154.8" class="st6" width="218.4" height="92.6"/>
		<text transform="matrix(1.2208 0 0 1 261.5333 185.486)"><tspan x="0" y="0" class="st7 st8">Be </tspan><tspan x="0" y="40.7" class="st7 st8">Weird!!!</tspan></text>
	</g>
</g>
</svg>
